<svg width="427" height="117" viewBox="0 0 427 117" fill="none" xmlns="http://www.w3.org/2000/svg">
<path d="M369 75.52V0H372.84V75.52H369ZM384.36 75.52V0H395.88V75.52H384.36ZM399.72 75.52V0H403.56V75.52H399.72ZM407.4 75.52V0H418.92V75.52H407.4ZM422.76 75.52V0H426.6V75.52H422.76Z" fill="white"/>
<path d="M307.5 75.52V0H319.02V75.52H307.5ZM322.86 75.52V0H326.7V75.52H322.86ZM330.54 75.52V0H334.38V75.52H330.54ZM338.22 75.52V0H349.74V75.52H338.22ZM361.26 75.52V0H365.1V75.52H361.26ZM358.004 86.656H366.708C370.121 86.656 372.596 87.424 374.132 88.96C375.753 90.4107 376.564 92.5013 376.564 95.232C376.564 96.9387 376.009 98.56 374.9 100.096C373.791 101.632 372.34 102.656 370.548 103.168L377.46 116.352H373.748L367.092 103.296H361.332V116.352H358.004V86.656ZM367.092 100.352C369.14 100.352 370.676 99.8827 371.7 98.944C372.639 98.0907 373.108 96.8533 373.108 95.232C373.108 93.6107 372.639 92.288 371.7 91.264C370.676 90.3253 369.14 89.856 367.092 89.856H361.332V100.352H367.092Z" fill="white"/>
<path d="M246 75.52V0H257.52V75.52H246ZM261.36 75.52V0H265.2V75.52H261.36ZM269.04 75.52V0H272.88V75.52H269.04ZM284.4 75.52V0H288.24V75.52H284.4ZM292.08 75.52V0H303.6V75.52H292.08ZM310.456 107.648H300.856L297.912 116.352H294.584L305.464 86.144H305.848L316.856 116.352H313.4L310.456 107.648ZM309.56 105.088L305.72 93.824L301.752 105.088H309.56Z" fill="white"/>
<path d="M184.5 75.52V0H188.34V75.52H184.5ZM192.18 75.52V0H196.02V75.52H192.18ZM199.86 75.52V0H211.38V75.52H199.86ZM215.22 75.52V0H219.06V75.52H215.22ZM230.58 75.52V0H242.1V75.52H230.58ZM234.748 86.656H237.948L250.364 108.672V86.656H254.076V87.04C253.82 87.2107 253.692 87.424 253.692 87.68C253.607 87.8507 253.564 88.2347 253.564 88.832V116.352H251.004L237.82 93.056V116.352H234.748V86.656Z" fill="white"/>
<path d="M123 75.52V0H134.52V75.52H123ZM138.36 75.52V0H142.2V75.52H138.36ZM146.04 75.52V0H149.88V75.52H146.04ZM161.4 75.52V0H165.24V75.52H161.4ZM169.08 75.52V0H180.6V75.52H169.08ZM187.456 107.648H177.856L174.912 116.352H171.584L182.464 86.144H182.848L193.856 116.352H190.4L187.456 107.648ZM186.56 105.088L182.72 93.824L178.752 105.088H186.56Z" fill="white"/>
<path d="M61.5 75.52V0H65.34V75.52H61.5ZM69.18 75.52V0H80.7V75.52H69.18ZM84.54 75.52V0H88.38V75.52H84.54ZM92.22 75.52V0H96.06V75.52H92.22ZM107.58 75.52V0H119.1V75.52H107.58ZM112.516 86.656H116.356V87.04C116.185 87.2107 116.057 87.424 115.972 87.68C115.972 87.8507 115.972 88.2347 115.972 88.832V113.536H130.18V116.352H112.516V86.656Z" fill="white"/>
<path d="M0 75.52V0H3.84V75.52H0ZM7.67999 75.52V0H19.2V75.52H7.67999ZM23.04 75.52V0H34.56V75.52H23.04ZM38.4 75.52V0H42.24V75.52H38.4ZM53.76 75.52V0H57.6V75.52H53.76ZM50.632 86.656H60.104C63.2613 86.656 65.608 87.4667 67.144 89.088C68.7653 90.624 69.576 92.6293 69.576 95.104C69.576 97.4933 68.808 99.456 67.272 100.992C65.736 102.528 63.432 103.296 60.36 103.296H54.088V116.352H50.632V86.656ZM59.976 100.352C62.1093 100.352 63.6453 99.8827 64.584 98.944C65.608 98.0907 66.12 96.8533 66.12 95.232C66.12 93.6107 65.608 92.3307 64.584 91.392C63.56 90.368 62.0667 89.856 60.104 89.856H54.088V100.352H59.976Z" fill="white"/>
</svg>
